<svg width="104" height="24" viewBox="0 0 104 24" fill="none" xmlns="http://www.w3.org/2000/svg">
<g clip-path="url(#clip0_34_30)">
<path d="M16.2705 8.63538H6.74842V12.1011H15.0982V17.2419H6.74842V23.7112H0V3.49459H16.2705V8.63538ZM18.215 23.7112V2.28159H24.6775V23.7112H18.215ZM27.537 23.7112V7.91336H33.9994V23.7112H27.537ZM30.7682 6.6426C29.6053 6.6426 28.6665 6.32972 27.9516 5.70397C27.2367 5.07822 26.8793 4.284 26.8793 3.3213C26.8793 2.35861 27.2367 1.56438 27.9516 0.938628C28.6665 0.312876 29.6053 0 30.7682 0C31.9501 0 32.8938 0.298436 33.5991 0.895307C34.3045 1.49218 34.6571 2.26234 34.6571 3.20578C34.6571 4.20698 34.3045 5.03009 33.5991 5.67509C32.8938 6.3201 31.9501 6.6426 30.7682 6.6426ZM45.2659 24C43.493 24 41.906 23.6534 40.5048 22.9603C39.1037 22.2672 38.0075 21.2948 37.2164 20.0433C36.4253 18.7918 36.0297 17.3767 36.0297 15.7978C36.0297 14.219 36.4253 12.8087 37.2164 11.5668C38.0075 10.3249 39.1037 9.3574 40.5048 8.66426C41.906 7.97112 43.493 7.62455 45.2659 7.62455C47.1722 7.62455 48.8021 8.03851 50.1556 8.86643C51.5091 9.69435 52.4432 10.84 52.9579 12.3033L47.9538 14.787C47.3438 13.4007 46.4383 12.7076 45.2373 12.7076C44.4747 12.7076 43.8409 12.9771 43.3357 13.5163C42.8305 14.0554 42.5779 14.8159 42.5779 15.7978C42.5779 16.799 42.8305 17.5692 43.3357 18.1083C43.8409 18.6474 44.4747 18.917 45.2373 18.917C46.4383 18.917 47.3438 18.2238 47.9538 16.8375L52.9579 19.3213C52.4432 20.7846 51.5091 21.9302 50.1556 22.7581C48.8021 23.586 47.1722 24 45.2659 24ZM65.7399 23.7112L61.9368 18.8592L60.9073 19.9856V23.7112H54.4449V2.28159H60.9073V12.5054L65.3968 7.91336H73.0316L66.5691 14.7581L73.5463 23.7112H65.7399ZM90.7605 15.7978C90.7605 15.8941 90.7319 16.4043 90.6747 17.3285H79.8086C80.0374 17.9254 80.4186 18.3827 80.9524 18.7004C81.4862 19.0181 82.1534 19.1769 82.9541 19.1769C83.6404 19.1769 84.217 19.0903 84.6841 18.917C85.1511 18.7437 85.6611 18.4453 86.2139 18.0217L89.5881 21.4585C88.063 23.1528 85.785 24 82.7539 24C80.8666 24 79.2081 23.6486 77.7784 22.9459C76.3486 22.2431 75.243 21.266 74.4614 20.0144C73.6798 18.7629 73.289 17.3574 73.289 15.7978C73.289 14.219 73.675 12.8087 74.4471 11.5668C75.2191 10.3249 76.2771 9.3574 77.6211 8.66426C78.9651 7.97112 80.4758 7.62455 82.1534 7.62455C83.7357 7.62455 85.1797 7.94224 86.4856 8.57762C87.7914 9.213 88.8303 10.1468 89.6024 11.3791C90.3745 12.6113 90.7605 14.0842 90.7605 15.7978ZM82.2106 12.0722C81.5434 12.0722 80.9905 12.2551 80.5521 12.6209C80.1136 12.9868 79.8277 13.5066 79.6942 14.1805H84.727C84.5935 13.5259 84.3076 13.0108 83.8691 12.6354C83.4307 12.2599 82.8778 12.0722 82.2106 12.0722ZM98.9387 9.61733C100.082 8.28881 101.77 7.62455 104 7.62455V13.4007C103.485 13.3237 103.009 13.2852 102.57 13.2852C100.359 13.2852 99.2532 14.4212 99.2532 16.6931V23.7112H92.7907V7.91336H98.9387V9.61733Z" fill="#E93232"/>
</g>
<defs>
<clipPath id="clip0_34_30">
<rect width="104" height="24" fill="white"/>
</clipPath>
</defs>
</svg>
